<?xml version="1.0" encoding="utf-8"?>
<!-- Generator: Adobe Illustrator 20.1.0, SVG Export Plug-In . SVG Version: 6.00 Build 0)  -->
<svg version="1.1" id="Layer_1" xmlns="http://www.w3.org/2000/svg" xmlns:xlink="http://www.w3.org/1999/xlink" x="0px" y="0px"
	 viewBox="0 0 200 100" style="enable-background:new 0 0 200 100;" xml:space="preserve">
<style type="text/css">
	.st0{fill:#58595B;}
</style>
<g>
	<path class="st0" d="M14.7,28.4c0.8,0,1.4-0.1,1.9-0.2s0.9-0.3,1.2-0.5c0.3-0.2,0.5-0.5,0.6-0.8s0.2-0.6,0.2-1c0-0.8-0.4-1.4-1.1-2
		c-0.7-0.5-2-1.1-3.8-1.7c-0.8-0.3-1.6-0.6-2.3-0.9c-0.8-0.4-1.5-0.8-2.1-1.3s-1.1-1.2-1.5-2c-0.4-0.8-0.6-1.7-0.6-2.8
		s0.2-2.1,0.6-3c0.4-0.9,1-1.6,1.8-2.3c0.8-0.6,1.7-1.1,2.8-1.4C13.3,8.2,14.6,8,15.9,8c1.6,0,3,0.2,4.2,0.5s2.1,0.7,2.9,1.1
		l-1.6,4.2c-0.7-0.3-1.4-0.6-2.2-0.9c-0.8-0.3-1.8-0.4-3-0.4c-1.3,0-2.2,0.2-2.8,0.5c-0.5,0.5-0.8,1-0.8,1.8c0,0.4,0.1,0.8,0.3,1.1
		c0.2,0.3,0.5,0.6,0.9,0.8s0.8,0.5,1.3,0.7s1,0.4,1.6,0.6c1.2,0.5,2.3,0.9,3.2,1.4s1.7,1,2.3,1.6c0.6,0.6,1.1,1.3,1.4,2.1
		c0.3,0.8,0.4,1.8,0.4,2.9c0,2.2-0.8,4-2.3,5.2c-1.5,1.2-3.8,1.8-7,1.8c-1.1,0-2-0.1-2.9-0.2c-0.9-0.1-1.6-0.3-2.3-0.5
		c-0.7-0.2-1.2-0.4-1.7-0.6s-0.9-0.4-1.2-0.6l1.5-4.3c0.7,0.4,1.6,0.7,2.6,1.1C11.9,28.2,13.2,28.4,14.7,28.4z"/>
	<path class="st0" d="M43.1,23.4c0,1.4-0.2,2.7-0.6,3.9c-0.4,1.2-1,2.2-1.8,3s-1.7,1.5-2.8,2S35.6,33,34.2,33
		c-1.3,0-2.5-0.2-3.6-0.7s-2-1.1-2.8-2c-0.8-0.8-1.4-1.9-1.8-3c-0.4-1.2-0.7-2.5-0.7-3.9s0.2-2.7,0.7-3.9c0.4-1.2,1.1-2.2,1.9-3
		c0.8-0.8,1.7-1.5,2.8-1.9c1.1-0.5,2.3-0.7,3.6-0.7s2.5,0.2,3.6,0.7s2,1.1,2.8,1.9s1.4,1.8,1.8,3C42.8,20.6,43.1,21.9,43.1,23.4z
		 M37.8,23.4c0-1.6-0.3-2.8-0.9-3.7s-1.5-1.4-2.7-1.4s-2.1,0.5-2.7,1.4c-0.6,0.9-1,2.2-1,3.7c0,1.6,0.3,2.8,1,3.8
		c0.6,0.9,1.6,1.4,2.7,1.4c1.2,0,2.1-0.5,2.7-1.4C37.5,26.2,37.8,25,37.8,23.4z"/>
	<path class="st0" d="M60.7,31.9c-0.9,0.3-2,0.5-3.4,0.7c-1.4,0.2-2.8,0.3-4.3,0.3s-2.8-0.2-3.8-0.6s-1.8-1-2.4-1.7
		c-0.6-0.7-1-1.6-1.3-2.7c-0.3-1-0.4-2.2-0.4-3.4V14.3h5.1v9.5c0,1.7,0.2,2.9,0.7,3.6c0.4,0.7,1.3,1.1,2.5,1.1c0.4,0,0.8,0,1.2-0.1
		c0.4,0,0.8-0.1,1.1-0.1v-14h5.1L60.7,31.9L60.7,31.9z"/>
	<path class="st0" d="M63.5,9.8L68.6,9v5.4h6.2v4.3h-6.2V25c0,1.1,0.2,1.9,0.6,2.6c0.4,0.6,1.1,1,2.3,1c0.6,0,1.1-0.1,1.7-0.2
		s1.1-0.2,1.6-0.4l0.7,4c-0.6,0.3-1.3,0.5-2.1,0.7c-0.8,0.2-1.7,0.3-2.8,0.3c-1.4,0-2.6-0.2-3.5-0.6c-0.9-0.4-1.7-0.9-2.2-1.6
		c-0.6-0.7-0.9-1.5-1.2-2.5c-0.3-1-0.3-2-0.3-3.2V9.8H63.5z"/>
	<path class="st0" d="M77.4,32.5v-26l5.2-0.8v8.7c0.3-0.1,0.8-0.2,1.3-0.3s1.1-0.2,1.6-0.2c1.5,0,2.7,0.2,3.7,0.6
		c1,0.4,1.8,1,2.3,1.7c0.6,0.7,1,1.6,1.2,2.6s0.4,2.1,0.4,3.4v10.3H88v-9.6c0-1.7-0.2-2.8-0.6-3.5s-1.2-1-2.4-1
		c-0.5,0-0.9,0-1.3,0.1s-0.8,0.2-1.1,0.3v13.8L77.4,32.5L77.4,32.5z"/>
	<path class="st0" d="M110.6,28.4c0.8,0,1.4-0.1,1.9-0.2s0.9-0.3,1.2-0.5c0.3-0.2,0.5-0.5,0.6-0.8s0.2-0.6,0.2-1
		c0-0.8-0.4-1.4-1.1-2c-0.7-0.5-2-1.1-3.8-1.7c-0.8-0.3-1.6-0.6-2.3-0.9c-0.8-0.4-1.5-0.8-2.1-1.3s-1.1-1.2-1.5-2s-0.6-1.7-0.6-2.8
		s0.2-2.1,0.6-3s1-1.6,1.8-2.3c0.8-0.6,1.7-1.1,2.8-1.4c1.1-0.3,2.3-0.5,3.7-0.5c1.6,0,3,0.2,4.2,0.5s2.1,0.7,2.9,1.1l-1.6,4.2
		c-0.7-0.3-1.4-0.6-2.2-0.9c-0.8-0.3-1.8-0.4-3-0.4c-1.3,0-2.2,0.2-2.8,0.5c-0.6,0.4-0.8,0.9-0.8,1.6c0,0.4,0.1,0.8,0.3,1.1
		c0.2,0.3,0.5,0.6,0.9,0.8s0.8,0.5,1.3,0.7s1,0.4,1.6,0.6c1.2,0.5,2.3,0.9,3.2,1.4c0.9,0.4,1.7,1,2.3,1.6c0.6,0.6,1.1,1.3,1.4,2.1
		c0.3,0.8,0.4,1.8,0.4,2.9c0,2.2-0.8,4-2.3,5.2c-1.6,1.2-3.9,1.8-7.1,1.8c-1.1,0-2-0.1-2.9-0.2c-0.9-0.1-1.6-0.3-2.3-0.5
		c-0.7-0.2-1.2-0.4-1.7-0.6s-0.9-0.4-1.2-0.6l1.5-4.3c0.7,0.4,1.6,0.7,2.6,1.1S109,28.4,110.6,28.4z"/>
	<path class="st0" d="M129.1,13.8c1.5,0,2.8,0.2,3.8,0.5s1.8,0.8,2.4,1.5c0.6,0.6,1,1.4,1.3,2.3s0.4,1.9,0.4,3.1V32
		c-0.7,0.2-1.8,0.4-3.1,0.6s-2.9,0.3-4.8,0.3c-1.2,0-2.2-0.1-3.2-0.3s-1.8-0.5-2.5-1s-1.2-1.1-1.6-1.8s-0.6-1.7-0.6-2.8
		c0-1.1,0.2-2,0.6-2.7s1-1.3,1.7-1.8s1.5-0.8,2.5-0.9c0.9-0.2,1.9-0.3,2.9-0.3c0.7,0,1.3,0,1.8,0.1s0.9,0.1,1.3,0.2V21
		c0-0.9-0.3-1.6-0.8-2.1s-1.5-0.8-2.8-0.8c-0.9,0-1.7,0.1-2.6,0.2s-1.6,0.3-2.2,0.5l-0.7-4.1c0.3-0.1,0.7-0.2,1.1-0.3
		s0.9-0.2,1.5-0.3c0.5-0.1,1.1-0.1,1.7-0.2C127.9,13.9,128.5,13.8,129.1,13.8z M129.5,28.9c0.5,0,1,0,1.4,0c0.5,0,0.8-0.1,1.1-0.1
		v-3.9c-0.2,0-0.5-0.1-0.9-0.1s-0.8-0.1-1.1-0.1c-0.5,0-0.9,0-1.4,0.1c-0.4,0.1-0.8,0.2-1.1,0.3c-0.3,0.2-0.6,0.4-0.8,0.7
		c-0.2,0.3-0.3,0.6-0.3,1c0,0.8,0.3,1.4,0.8,1.7C127.7,28.8,128.6,28.9,129.5,28.9z"/>
	<path class="st0" d="M147.1,32.8c-1.5,0-2.7-0.2-3.6-0.5c-0.9-0.3-1.7-0.7-2.2-1.3c-0.5-0.5-0.9-1.2-1.1-2
		c-0.2-0.8-0.3-1.6-0.3-2.6v-20l5.1-0.8v19.8c0,0.5,0,0.9,0.1,1.2c0.1,0.4,0.2,0.7,0.4,0.9c0.2,0.3,0.5,0.5,0.8,0.6
		c0.4,0.2,0.9,0.3,1.5,0.3L147.1,32.8z"/>
	<path class="st0" d="M148,23.5c0-1.6,0.2-3,0.7-4.2s1.1-2.2,2-3c0.8-0.8,1.7-1.4,2.8-1.8c1-0.4,2.1-0.6,3.2-0.6
		c2.6,0,4.6,0.8,6.1,2.4s2.2,3.9,2.2,7c0,0.3,0,0.6,0,1s0,0.7-0.1,0.9h-11.7c0.1,1.1,0.6,1.9,1.5,2.5s2,0.9,3.5,0.9
		c0.9,0,1.9-0.1,2.8-0.3c0.9-0.2,1.7-0.4,2.2-0.6l0.7,4.2c-0.3,0.1-0.6,0.3-1.1,0.4c-0.5,0.1-1,0.3-1.5,0.4s-1.2,0.2-1.8,0.3
		s-1.3,0.1-1.9,0.1c-1.6,0-3.1-0.2-4.3-0.7s-2.2-1.1-3-2c-0.8-0.8-1.4-1.8-1.8-3C148.2,26.1,148,24.9,148,23.5z M160.1,21.6
		c0-0.4-0.1-0.9-0.2-1.3c-0.1-0.4-0.3-0.8-0.6-1.1c-0.3-0.3-0.6-0.6-1-0.8c-0.4-0.2-0.9-0.3-1.5-0.3s-1.1,0.1-1.5,0.3
		c-0.4,0.2-0.8,0.5-1,0.8c-0.3,0.3-0.5,0.7-0.6,1.1s-0.3,0.9-0.3,1.3H160.1z"/>
	<path class="st0" d="M177.1,22.9c0-1.7-0.2-2.8-0.6-3.5c-0.4-0.7-1.2-1-2.2-1c-0.3,0-0.7,0-1,0.1c-0.3,0-0.7,0.1-1,0.1v14h-5.1
		V14.9c0.4-0.1,0.9-0.2,1.5-0.4c0.6-0.1,1.2-0.2,1.9-0.3s1.3-0.2,2-0.2c0.7-0.1,1.4-0.1,2-0.1c1.3,0,2.4,0.2,3.2,0.5s1.5,0.7,2,1.2
		c0.7-0.5,1.6-0.9,2.5-1.2c1-0.3,1.8-0.4,2.6-0.4c1.4,0,2.6,0.2,3.6,0.6c0.9,0.4,1.7,1,2.2,1.7c0.6,0.7,0.9,1.6,1.1,2.6
		c0.2,1,0.3,2.1,0.3,3.4v10.3H187V23c0-1.7-0.2-2.8-0.6-3.5c-0.4-0.7-1.2-1-2.2-1c-0.3,0-0.7,0.1-1.2,0.2s-0.9,0.3-1.2,0.5
		c0.2,0.5,0.3,1.1,0.3,1.7s0.1,1.2,0.1,1.9v9.9h-5.1V22.9z"/>
</g>
<g>
	<path class="st0" d="M32.6,52.6c0,2.1-0.3,3.9-1,5.4c-0.6,1.5-1.6,2.8-2.7,3.8c-1.2,1-2.6,1.8-4.3,2.3c-1.7,0.5-3.6,0.8-5.7,0.8
		c-1,0-2.1,0-3.4-0.1s-2.6-0.2-3.8-0.5V40.9c1.2-0.2,2.5-0.4,3.9-0.5c1.3-0.1,2.5-0.1,3.5-0.1c2,0,3.9,0.2,5.6,0.7s3.1,1.2,4.3,2.2
		s2.1,2.3,2.8,3.8C32.2,48.5,32.6,50.4,32.6,52.6z M17,60.1c0.3,0,0.5,0,0.9,0.1c0.3,0,0.7,0,1.2,0c2.7,0,4.7-0.7,6-2
		c1.3-1.4,2-3.2,2-5.6c0-2.5-0.6-4.4-1.9-5.7S22,45,19.3,45c-0.4,0-0.7,0-1.1,0s-0.8,0-1.1,0.1v15H17z"/>
	<path class="st0" d="M34,55.6c0-1.6,0.2-3,0.7-4.2s1.1-2.2,2-3c0.8-0.8,1.7-1.4,2.8-1.8c1-0.4,2.1-0.6,3.2-0.6
		c2.6,0,4.6,0.8,6.1,2.4c1.5,1.6,2.2,3.9,2.2,7c0,0.3,0,0.6,0,1s0,0.7-0.1,0.9H39.3c0.1,1.1,0.6,1.9,1.5,2.5s2,0.9,3.5,0.9
		c0.9,0,1.9-0.1,2.8-0.3c0.9-0.2,1.7-0.4,2.2-0.6L50,64c-0.3,0.1-0.6,0.3-1.1,0.4s-1,0.3-1.5,0.4c-0.6,0.1-1.2,0.2-1.8,0.3
		c-0.7-0.1-1.4-0.1-2-0.1c-1.6,0-3.1-0.2-4.3-0.7s-2.2-1.1-3-2c-0.8-0.8-1.4-1.8-1.8-3C34.2,58.2,34,56.9,34,55.6z M46.1,53.6
		c0-0.4-0.1-0.9-0.2-1.3s-0.3-0.8-0.6-1.1s-0.6-0.6-1-0.8s-0.9-0.3-1.5-0.3s-1.1,0.1-1.5,0.3s-0.8,0.5-1,0.8
		c-0.3,0.3-0.5,0.7-0.6,1.1c-0.1,0.4-0.3,0.9-0.3,1.3H46.1z"/>
	<path class="st0" d="M53.1,47c0.9-0.3,2-0.5,3.4-0.7s2.8-0.3,4.3-0.3s2.8,0.2,3.8,0.6c1,0.4,1.8,1,2.4,1.7s1,1.6,1.3,2.6
		s0.4,2.1,0.4,3.4v10.3h-5.1V55c0-1.7-0.2-2.8-0.7-3.5c-0.4-0.7-1.3-1-2.5-1c-0.4,0-0.8,0-1.2,0.1s-0.8,0.1-1.1,0.1v14H53L53.1,47
		L53.1,47z"/>
	<path class="st0" d="M71.4,41.9l5.1-0.8v5.4h6.2v4.3h-6.2V57c0,1.1,0.2,1.9,0.6,2.6c0.4,0.6,1.1,1,2.3,1c0.6,0,1.1-0.1,1.7-0.2
		c0.6-0.1,1.1-0.2,1.6-0.4l0.7,4c-0.6,0.3-1.3,0.5-2.1,0.7c-0.8,0.2-1.7,0.3-2.8,0.3c-1.4,0-2.6-0.2-3.5-0.6s-1.7-0.9-2.2-1.6
		s-0.9-1.5-1.2-2.5s-0.3-2-0.3-3.2V41.9H71.4z"/>
	<path class="st0" d="M92.3,45.9c1.5,0,2.8,0.2,3.8,0.5s1.8,0.8,2.4,1.5c0.6,0.6,1,1.4,1.3,2.3s0.4,1.9,0.4,3.1V64
		c-0.7,0.2-1.8,0.4-3.1,0.6s-2.9,0.3-4.8,0.3c-1.2,0-2.2-0.1-3.2-0.3c-1-0.2-1.8-0.5-2.5-1s-1.2-1.1-1.6-1.8
		c-0.4-0.8-0.6-1.7-0.6-2.8s0.2-2,0.6-2.7s1-1.3,1.7-1.8c0.7-0.4,1.5-0.8,2.5-0.9c0.9-0.2,1.9-0.3,2.9-0.3c0.7,0,1.3,0,1.8,0.1
		s0.9,0.1,1.3,0.2v-0.5c0-0.9-0.3-1.6-0.8-2.1s-1.4-0.8-2.8-0.8c-0.9,0-1.7,0.1-2.6,0.2c-0.9,0.1-1.6,0.3-2.2,0.5l-0.7-4.1
		c0.3-0.1,0.7-0.2,1.1-0.3s0.9-0.2,1.5-0.3c0.5-0.1,1.1-0.1,1.7-0.2C91.1,45.9,91.7,45.9,92.3,45.9z M92.7,60.9c0.5,0,1,0,1.4,0
		c0.5,0,0.8-0.1,1.1-0.1v-3.9c-0.2,0-0.5-0.1-0.9-0.1s-0.8-0.1-1.1-0.1c-0.5,0-0.9,0-1.4,0.1c-0.4,0.1-0.8,0.2-1.1,0.3
		c-0.3,0.2-0.6,0.4-0.8,0.7c-0.2,0.3-0.3,0.6-0.3,1c0,0.8,0.3,1.4,0.8,1.7C91,60.8,91.7,60.9,92.7,60.9z"/>
	<path class="st0" d="M110.2,64.9c-1.5,0-2.7-0.2-3.6-0.5s-1.7-0.7-2.2-1.3c-0.5-0.5-0.9-1.2-1.1-2s-0.3-1.6-0.3-2.6v-20l5.1-0.8
		v19.8c0,0.5,0,0.9,0.1,1.2s0.2,0.7,0.4,0.9c0.2,0.3,0.5,0.5,0.8,0.6c0.4,0.2,0.9,0.3,1.5,0.3L110.2,64.9z"/>
	<path class="st0" d="M131.1,65c-3.9,0-6.9-1.1-8.9-3.2c-2-2.2-3.1-5.2-3.1-9.2c0-2,0.3-3.7,0.9-5.3s1.5-2.9,2.6-3.9
		c1.1-1.1,2.4-1.9,3.9-2.4c1.5-0.6,3.1-0.8,4.9-0.8c1,0,1.9,0.1,2.8,0.2c0.8,0.1,1.6,0.3,2.2,0.5c0.6,0.2,1.1,0.4,1.6,0.6
		s0.7,0.4,0.9,0.5l-1.6,4.3c-0.7-0.4-1.6-0.7-2.6-1s-2.1-0.4-3.3-0.4c-0.8,0-1.6,0.1-2.4,0.4c-0.8,0.3-1.5,0.7-2.1,1.3
		c-0.6,0.6-1.1,1.4-1.5,2.4s-0.6,2.1-0.6,3.5c0,1.1,0.1,2.1,0.4,3.1c0.2,1,0.6,1.8,1.2,2.5c0.5,0.7,1.2,1.2,2.1,1.6
		c0.9,0.4,1.9,0.6,3.2,0.6c0.8,0,1.5,0,2.1-0.1s1.2-0.2,1.7-0.3s0.9-0.3,1.3-0.4c0.4-0.2,0.7-0.3,1-0.4l1.5,4.3
		c-0.8,0.5-1.8,0.9-3.2,1.2C134.5,64.8,132.9,65,131.1,65z"/>
	<path class="st0" d="M147.5,45.9c1.5,0,2.8,0.2,3.8,0.5s1.8,0.8,2.4,1.5c0.6,0.6,1,1.4,1.3,2.3s0.4,1.9,0.4,3.1V64
		c-0.7,0.2-1.8,0.4-3.1,0.6s-2.9,0.3-4.8,0.3c-1.2,0-2.2-0.1-3.2-0.3c-1-0.2-1.8-0.5-2.5-1s-1.2-1.1-1.6-1.8
		c-0.4-0.8-0.6-1.7-0.6-2.8s0.2-2,0.6-2.7c0.4-0.7,1-1.3,1.7-1.8c0.7-0.4,1.5-0.8,2.5-0.9c0.9-0.2,1.9-0.3,2.9-0.3
		c0.7,0,1.3,0,1.8,0.1s0.9,0.1,1.3,0.2v-0.5c0-0.9-0.3-1.6-0.8-2.1s-1.4-0.8-2.8-0.8c-0.9,0-1.7,0.1-2.6,0.2
		c-0.9,0.1-1.6,0.3-2.2,0.5l-0.7-4.1c0.3-0.1,0.7-0.2,1.1-0.3c0.4-0.1,0.9-0.2,1.5-0.3c0.5-0.1,1.1-0.1,1.7-0.2
		C146.3,45.9,146.9,45.9,147.5,45.9z M148,60.9c0.5,0,1,0,1.4,0c0.5,0,0.8-0.1,1.1-0.1v-3.9c-0.2,0-0.5-0.1-0.9-0.1
		s-0.8-0.1-1.1-0.1c-0.5,0-0.9,0-1.4,0.1c-0.4,0.1-0.8,0.2-1.1,0.3c-0.3,0.2-0.6,0.4-0.8,0.7s-0.3,0.6-0.3,1c0,0.8,0.3,1.4,0.8,1.7
		C146.3,60.8,147,60.9,148,60.9z"/>
	<path class="st0" d="M169.2,50.9c-0.5-0.1-1-0.2-1.6-0.4s-1.3-0.2-2-0.2c-0.3,0-0.7,0-1.2,0.1c-0.4,0.1-0.8,0.1-1,0.2v13.9h-5.1
		V47.3c0.9-0.3,2-0.6,3.3-0.9c1.3-0.3,2.7-0.4,4.2-0.4c0.3,0,0.6,0,1,0.1c0.4,0,0.8,0.1,1.2,0.1c0.4,0.1,0.8,0.1,1.2,0.2
		c0.4,0.1,0.7,0.2,1,0.3L169.2,50.9z"/>
	<path class="st0" d="M170.1,55.6c0-1.6,0.2-3,0.7-4.2s1.1-2.2,2-3c0.8-0.8,1.7-1.4,2.8-1.8c1-0.4,2.1-0.6,3.2-0.6
		c2.6,0,4.6,0.8,6.1,2.4c1.5,1.6,2.2,3.9,2.2,7c0,0.3,0,0.6,0,1s0,0.7-0.1,0.9h-11.6c0.1,1.1,0.6,1.9,1.5,2.5s2,0.9,3.5,0.9
		c0.9,0,1.9-0.1,2.8-0.3c0.9-0.2,1.7-0.4,2.2-0.6l0.7,4.2c-0.3,0.1-0.6,0.3-1.1,0.4s-1,0.3-1.5,0.4s-1.2,0.2-1.8,0.3
		c-0.6,0.1-1.3,0.1-1.9,0.1c-1.6,0-3.1-0.2-4.3-0.7s-2.2-1.1-3-2c-0.8-0.8-1.4-1.8-1.8-3C170.3,58.2,170.1,56.9,170.1,55.6z
		 M182.2,53.6c0-0.4-0.1-0.9-0.2-1.3c-0.1-0.4-0.3-0.8-0.6-1.1s-0.6-0.6-1-0.8s-0.9-0.3-1.5-0.3s-1.1,0.1-1.5,0.3s-0.8,0.5-1,0.8
		c-0.3,0.3-0.5,0.7-0.6,1.1s-0.3,0.9-0.3,1.3H182.2z"/>
</g>
<g>
	<g>
		<path class="st0" d="M44.9,81c-0.5,0-1,0.2-1.3,0.5s-0.5,0.7-0.5,1.1s0.1,0.8,0.4,1.1s0.6,0.5,1,0.7s0.8,0.4,1.3,0.6
			s0.9,0.5,1.3,0.7c0.4,0.3,0.7,0.7,1,1.1s0.4,1,0.4,1.6s-0.1,1.1-0.3,1.6s-0.5,0.9-0.9,1.2c-0.4,0.3-0.9,0.6-1.5,0.8
			c-0.6,0.2-1.2,0.3-1.9,0.3c-0.6,0-1.2-0.1-1.7-0.2s-0.9-0.3-1.1-0.5c0.1-0.4,0.2-0.8,0.3-1.1c0.1-0.3,0.2-0.7,0.2-1.1h0.3
			c0,0.3,0.1,0.5,0.3,0.7c0.1,0.2,0.3,0.4,0.5,0.6s0.4,0.3,0.7,0.4s0.6,0.1,0.9,0.1c0.7,0,1.2-0.2,1.5-0.5s0.5-0.8,0.5-1.3
			c0-0.4-0.1-0.8-0.4-1.1c-0.3-0.3-0.6-0.5-1-0.7s-0.8-0.4-1.3-0.6s-0.9-0.5-1.3-0.7c-0.4-0.3-0.7-0.6-1-1.1c-0.3-0.4-0.4-1-0.4-1.6
			s0.1-1.1,0.3-1.6s0.5-0.9,0.9-1.2s0.8-0.6,1.2-0.7c0.5-0.2,1-0.2,1.5-0.2c0.6,0,1.2,0.1,1.6,0.2c0.5,0.2,0.9,0.4,1.2,0.6
			c-0.1,0.3-0.2,0.5-0.3,0.8c-0.1,0.2-0.2,0.6-0.3,0.9h-0.3C46.6,81.5,45.9,81,44.9,81z"/>
		<path class="st0" d="M51.8,89.3c0.1,0.4,0.2,0.8,0.4,1.1c0.2,0.3,0.4,0.5,0.7,0.7s0.6,0.3,1,0.3c0.8,0,1.5-0.3,2.1-0.8l0.2,0.2
			l-0.4,1c-0.3,0.2-0.6,0.4-1,0.5s-0.9,0.2-1.6,0.2c-0.6,0-1.1-0.1-1.6-0.2c-0.5-0.2-1-0.4-1.3-0.8c-0.4-0.5-0.7-0.9-0.9-1.5
			s-0.3-1.2-0.3-2s0.1-1.4,0.3-2s0.5-1,0.8-1.4c0.4-0.4,0.8-0.6,1.3-0.8c0.5-0.2,1-0.3,1.6-0.3c1.1,0,2,0.3,2.6,1s0.9,1.6,0.9,2.9
			v0.4c0,0.1,0,0.2,0,0.2h-5C51.6,88.5,51.7,88.9,51.8,89.3z M54,85.1c-0.2-0.5-0.5-0.8-1-0.8c-0.3,0-0.5,0.1-0.6,0.3
			c-0.2,0.2-0.3,0.4-0.4,0.7c-0.1,0.3-0.2,0.6-0.2,0.9s-0.1,0.7-0.1,1h2.7C54.3,86.3,54.2,85.6,54,85.1z"/>
		<path class="st0" d="M59.2,83.9c0.6-0.2,1.1-0.3,1.7-0.3c0.5,0,0.9,0.1,1.3,0.2c0.4,0.1,0.7,0.3,1,0.5s0.5,0.5,0.7,0.9
			s0.2,0.8,0.2,1.3c0,0.7,0,1.4,0,2.1c0,0.6,0,1.3,0,1.9c0,0.3,0,0.5,0.1,0.7c0,0.2,0.1,0.3,0.2,0.4c0.1,0.1,0.2,0.1,0.3,0.2
			c0.1,0,0.3,0,0.5,0V92c-0.3,0.1-0.6,0.2-0.9,0.3c-0.2,0.1-0.5,0.1-0.7,0.1c-0.4,0-0.8-0.1-1-0.3c-0.3-0.2-0.5-0.5-0.6-0.9
			c-0.3,0.4-0.6,0.7-0.9,0.9c-0.4,0.2-0.8,0.3-1.3,0.3c-0.4,0-0.8-0.1-1.1-0.2s-0.6-0.3-0.8-0.5s-0.4-0.5-0.4-0.7s-0.1-0.5-0.1-0.8
			c0-0.4,0.1-0.7,0.2-1c0.1-0.3,0.3-0.5,0.5-0.7s0.5-0.4,0.8-0.5s0.7-0.2,1.1-0.3c0.5-0.1,0.9-0.2,1.2-0.3c0.3-0.1,0.5-0.2,0.6-0.3
			c0.1-0.1,0.2-0.2,0.3-0.3s0.1-0.2,0.1-0.4c0-0.4-0.1-0.8-0.4-1.1c-0.3-0.3-0.7-0.4-1.2-0.4c-0.2,0-0.4,0-0.6,0.1
			c-0.2,0.1-0.4,0.1-0.6,0.2s-0.4,0.2-0.5,0.3s-0.3,0.2-0.4,0.4h-0.1l-0.2-1C58.1,84.4,58.7,84.1,59.2,83.9z M61.8,88.4
			c0-0.3,0-0.5,0-0.7C61.6,87.8,61.3,88,61,88s-0.5,0.2-0.7,0.3c-0.2,0.1-0.4,0.3-0.6,0.5s-0.2,0.6-0.2,1s0.1,0.8,0.3,1
			s0.4,0.3,0.7,0.3c0.4,0,0.7-0.1,0.9-0.4s0.4-0.7,0.4-1.3C61.8,89,61.8,88.6,61.8,88.4z"/>
		<path class="st0" d="M68.6,85.1c0.3-0.5,0.7-0.9,1.1-1.1c0.4-0.3,0.9-0.4,1.5-0.4c0.9,0,1.5,0.3,2,0.8s0.7,1.3,0.7,2.4
			c0,0.6,0,1.1,0,1.6s0,0.9,0,1.4c0,0.4,0,0.8,0,1.2c0,0.4,0,0.9,0.1,1.3c-0.2,0-0.3,0-0.6,0s-0.5,0-0.7,0s-0.5,0-0.7,0
			s-0.4,0-0.6,0c0.1-0.6,0.1-1.3,0.2-2.1s0-1.8,0-2.8c0-0.7-0.1-1.3-0.4-1.6c-0.2-0.3-0.6-0.5-1.1-0.5S69.2,85.5,69,86
			s-0.4,1.1-0.4,1.9v0.7c0,0.7,0,1.4,0,2s0.1,1.2,0.1,1.8c-0.2,0-0.3,0-0.6,0c-0.3,0-0.5,0-0.7,0c-0.2,0-0.5,0-0.7,0
			c-0.2,0-0.4,0-0.6,0c0.1-0.6,0.1-1.2,0.1-1.8s0-1.3,0-2v-0.7c0-0.7,0-1.4,0-2s-0.1-1.2-0.1-1.9c0.2,0,0.4,0,0.6,0.1s0.4,0,0.6,0
			s0.4,0,0.6,0s0.4,0,0.7-0.1V85.1L68.6,85.1z"/>
		<path class="st0" d="M83.5,86.7v0.7c0,1,0,1.8,0,2.6s0.1,1.5,0.1,2.2c-0.2,0-0.4,0-0.6,0s-0.5,0-0.8,0s-0.6,0-0.8,0
			c-0.2,0-0.4,0-0.6,0c0-0.7,0.1-1.5,0.1-2.2s0-1.6,0-2.6V85c0-1,0-1.8,0-2.6c0-0.7-0.1-1.5-0.1-2.3c0.2,0,0.4,0,0.6,0.1
			c0.2,0,0.5,0,0.8,0s0.7,0,1.1,0s0.9,0,1.5,0c0.4,0,0.8,0,1.1,0s0.6,0.1,0.8,0.1c0.2,0,0.4,0.1,0.6,0.2s0.3,0.2,0.5,0.3
			c0.3,0.3,0.6,0.6,0.8,0.9c0.2,0.4,0.3,0.8,0.3,1.4c0,0.8-0.2,1.5-0.7,2.1c-0.5,0.5-1.1,0.9-2,1.1c0.6,1,1.2,2,1.8,3
			c0.6,1,1.3,2,1.9,2.9c-0.3,0-0.5,0-0.8,0s-0.5,0-0.8,0s-0.5,0-0.8,0s-0.5,0-0.8,0L83.5,86.7L83.5,86.7z M86.1,82.2
			c-0.1-0.3-0.3-0.5-0.5-0.7s-0.5-0.3-0.8-0.3s-0.8-0.1-1.2-0.1c0,1.6-0.1,3.2-0.1,4.7c0.1,0,0.1,0,0.2,0s0.1,0,0.2,0
			c0.8,0,1.4-0.2,1.8-0.6s0.6-1,0.6-1.9C86.2,83,86.2,82.6,86.1,82.2z"/>
		<path class="st0" d="M92.4,89.3c0.1,0.4,0.2,0.8,0.4,1.1c0.2,0.3,0.4,0.5,0.7,0.7c0.3,0.2,0.6,0.3,1,0.3c0.8,0,1.5-0.3,2.1-0.8
			l0.2,0.2l-0.4,1c-0.3,0.2-0.6,0.4-1,0.5s-0.9,0.2-1.6,0.2c-0.6,0-1.1-0.1-1.6-0.2c-0.5-0.2-1-0.4-1.3-0.8
			c-0.4-0.4-0.7-0.8-0.9-1.4c-0.2-0.6-0.3-1.2-0.3-2s0.1-1.4,0.3-2s0.5-1,0.8-1.4c0.4-0.4,0.8-0.6,1.3-0.8c0.5-0.2,1-0.3,1.6-0.3
			c1.1,0,2,0.3,2.6,1s0.9,1.6,0.9,2.9v0.4c0,0.1,0,0.2,0,0.2h-5C92.3,88.5,92.3,88.9,92.4,89.3z M94.6,85.1c-0.2-0.5-0.5-0.8-1-0.8
			c-0.3,0-0.5,0.1-0.6,0.3c-0.2,0.2-0.3,0.4-0.4,0.7c-0.1,0.3-0.2,0.6-0.2,0.9s-0.1,0.7-0.1,1H95C94.9,86.3,94.8,85.6,94.6,85.1z"/>
		<path class="st0" d="M98.8,79.5c0.3-0.3,0.6-0.4,1-0.4s0.7,0.1,1,0.4s0.4,0.6,0.4,1s-0.1,0.7-0.4,1s-0.6,0.4-1,0.4s-0.7-0.1-1-0.4
			s-0.4-0.6-0.4-1S98.5,79.8,98.8,79.5z M98.5,85.7c0-0.6-0.1-1.2-0.1-1.9c0.2,0,0.4,0,0.6,0.1c0.2,0,0.5,0,0.7,0c0.5,0,1,0,1.3-0.1
			c-0.1,0.6-0.1,1.3-0.1,1.9s0,1.3,0,2v0.7c0,0.7,0,1.4,0,2s0.1,1.2,0.1,1.8c-0.2,0-0.3,0-0.6,0c-0.2,0-0.5,0-0.7,0
			c-0.3,0-0.5,0-0.7,0s-0.4,0-0.6,0c0.1-0.6,0.1-1.2,0.1-1.8c0-0.6,0-1.3,0-2v-0.7C98.6,86.9,98.6,86.3,98.5,85.7z"/>
		<path class="st0" d="M103.1,90.5c0.1,0.2,0.2,0.3,0.4,0.5s0.4,0.2,0.6,0.3c0.2,0.1,0.5,0.1,0.8,0.1c0.4,0,0.7-0.1,0.9-0.3
			c0.2-0.2,0.3-0.4,0.3-0.7c0-0.3-0.1-0.5-0.3-0.6c-0.2-0.2-0.4-0.3-0.7-0.4c-0.3-0.1-0.6-0.3-1-0.4c-0.3-0.1-0.7-0.3-1-0.5
			s-0.5-0.5-0.7-0.8s-0.3-0.7-0.3-1.3c0-0.5,0.1-0.9,0.3-1.3c0.2-0.4,0.4-0.6,0.7-0.9c0.3-0.2,0.6-0.4,1-0.5s0.7-0.2,1.1-0.2
			c0.5,0,0.9,0.1,1.3,0.2s0.8,0.3,1.2,0.6c-0.1,0.2-0.2,0.5-0.3,0.7c-0.1,0.3-0.1,0.5-0.2,0.8h-0.5c0-0.1-0.1-0.3-0.2-0.5
			s-0.1-0.2-0.3-0.3c-0.1-0.2-0.3-0.3-0.5-0.4s-0.4-0.1-0.7-0.1c-0.3,0-0.6,0.1-0.9,0.3c-0.2,0.2-0.4,0.4-0.4,0.7
			c0,0.3,0.1,0.5,0.3,0.7c0.2,0.2,0.5,0.3,0.8,0.4s0.6,0.3,1,0.4s0.7,0.3,1,0.5s0.6,0.5,0.8,0.8c0.2,0.3,0.3,0.7,0.3,1.3
			s-0.1,0.9-0.3,1.3c-0.2,0.4-0.4,0.7-0.7,0.9s-0.7,0.4-1.1,0.5s-0.8,0.2-1.3,0.2s-1-0.1-1.4-0.2c-0.4-0.2-0.7-0.3-1-0.5
			c0.1-0.6,0.2-1.1,0.3-1.7h0.4C102.9,90.2,103,90.4,103.1,90.5z"/>
		<path class="st0" d="M109.3,79.5c0.3-0.3,0.6-0.4,1-0.4s0.7,0.1,1,0.4s0.4,0.6,0.4,1s-0.1,0.7-0.4,1s-0.6,0.4-1,0.4
			s-0.7-0.1-1-0.4s-0.4-0.6-0.4-1S109.1,79.8,109.3,79.5z M109.1,85.7c0-0.6-0.1-1.2-0.1-1.9c0.2,0,0.4,0,0.6,0.1c0.2,0,0.5,0,0.7,0
			c0.5,0,1,0,1.3-0.1c-0.1,0.6-0.1,1.3-0.1,1.9s0,1.3,0,2v0.7c0,0.7,0,1.4,0,2s0.1,1.2,0.1,1.8c-0.2,0-0.3,0-0.6,0s-0.5,0-0.7,0
			c-0.3,0-0.5,0-0.7,0s-0.4,0-0.6,0c0.1-0.6,0.1-1.2,0.1-1.8s0-1.3,0-2v-0.7C109.1,86.9,109.1,86.3,109.1,85.7z"/>
		<path class="st0" d="M119,84.4c0.3,0.2,0.5,0.5,0.7,0.8s0.3,0.7,0.3,1.1s-0.1,0.8-0.2,1.2c-0.2,0.4-0.4,0.7-0.7,0.9
			c-0.3,0.3-0.7,0.5-1.1,0.6s-0.9,0.2-1.4,0.2c-0.1,0-0.3,0-0.4,0s-0.3,0-0.4,0s-0.3,0.1-0.4,0.2s-0.1,0.3-0.1,0.4
			c0,0.3,0.1,0.5,0.3,0.7c0.2,0.2,0.6,0.2,1,0.3h1.3c1,0,1.7,0.2,2.2,0.5c0.5,0.4,0.7,0.9,0.7,1.7c0,0.7-0.1,1.3-0.4,1.8
			s-0.7,0.9-1.1,1.1c-0.4,0.3-0.9,0.5-1.5,0.6c-0.5,0.1-1.1,0.2-1.6,0.2c-1.1,0-1.9-0.2-2.6-0.6s-0.9-1-0.9-1.7c0-0.6,0.2-1,0.5-1.3
			s0.7-0.6,1.2-0.8l0,0c-0.3-0.1-0.5-0.3-0.7-0.5s-0.3-0.5-0.3-0.8c0-0.4,0.1-0.8,0.4-1.1c0.3-0.4,0.7-0.6,1.2-0.7l0,0
			c-0.7-0.2-1.3-0.5-1.6-0.9c-0.4-0.5-0.6-1.1-0.6-1.8c0-0.4,0.1-0.8,0.3-1.2c0.2-0.3,0.4-0.6,0.8-0.9s0.7-0.4,1.2-0.5
			s1-0.2,1.5-0.2c0.2,0,0.4,0,0.6,0s0.4,0,0.6,0s0.3,0,0.5,0s0.3,0,0.5,0c0.3,0,0.6,0,0.9,0s0.6,0,0.9,0c0,0.1,0,0.1,0,0.2
			s0,0.1,0,0.2s0,0.1,0,0.2s0,0.1,0,0.2L119,84.4L119,84.4z M118.6,93.2c-0.1-0.2-0.3-0.4-0.5-0.5s-0.5-0.2-0.8-0.2
			s-0.7-0.1-1.1-0.1c-0.6,0-1,0.1-1.3,0.2c-0.1,0.1-0.3,0.2-0.4,0.5c-0.2,0.3-0.2,0.6-0.2,1c0,0.3,0.1,0.6,0.2,0.9
			c0.1,0.2,0.3,0.5,0.5,0.6c0.2,0.2,0.5,0.3,0.7,0.4c0.3,0.1,0.6,0.1,0.9,0.1s0.6-0.1,0.9-0.2s0.5-0.3,0.7-0.5s0.3-0.4,0.4-0.7
			c0.1-0.2,0.1-0.5,0.1-0.8C118.8,93.7,118.7,93.4,118.6,93.2z M115.3,86.6c0,0.4,0,0.7,0.1,1s0.2,0.5,0.3,0.6
			c0.1,0.2,0.2,0.3,0.4,0.3c0.1,0.1,0.3,0.1,0.4,0.1c0.4,0,0.7-0.2,0.9-0.5c0.2-0.3,0.3-0.9,0.3-1.7c0-0.8-0.1-1.3-0.3-1.7
			s-0.5-0.5-0.8-0.5C115.7,84.3,115.3,85,115.3,86.6z"/>
	</g>
	<g>
		<path class="st0" d="M123,92.2c0.2-0.6,0.3-1.1,0.4-1.4s0.3-0.5,0.4-0.6s0.3-0.1,0.5-0.1c0.1,0,0.2,0,0.3,0.1
			c0.1,0,0.2,0.1,0.3,0.2c0.1,0.1,0.2,0.2,0.2,0.3s0.1,0.2,0.1,0.4c0,0.1,0,0.2-0.1,0.3c0,0.1-0.2,0.3-0.3,0.6
			c-0.2,0.3-0.4,0.6-0.8,1.1c-0.3,0.5-0.8,1.1-1.4,2l-0.4-0.1C122.6,93.6,122.8,92.8,123,92.2z"/>
		<path class="st0" d="M130.9,84.3c0-0.6,0-1.2-0.1-1.8c0.2,0,0.3,0,0.5,0s0.4,0,0.6,0c0.3,0,0.7,0,1,0s0.9,0,1.5,0
			c0.8,0,1.5,0.1,2.2,0.2s1.2,0.4,1.7,0.7c0.5,0.3,0.9,0.8,1.1,1.4c0.3,0.6,0.4,1.3,0.4,2.2c0,0.8-0.1,1.5-0.4,2.1
			c-0.3,0.6-0.6,1.2-1.1,1.6c-0.4,0.4-1,0.8-1.6,1s-1.2,0.4-1.9,0.4c-0.7,0-1.3,0-1.8,0s-0.9,0-1.3,0c-0.2,0-0.4,0-0.6,0
			s-0.4,0-0.5,0c0-0.6,0.1-1.2,0.1-1.8c0-0.6,0-1.3,0-2.1v-1.9C131,85.6,130.9,84.9,130.9,84.3z M133.1,89.3v0.8c0,0.3,0,0.5,0,0.8
			s0,0.4,0,0.4c0.1,0,0.3,0,0.5,0s0.4,0,0.7,0c1.1,0,1.9-0.4,2.5-1.1s0.9-1.8,0.9-3.3c0-0.6-0.1-1.1-0.2-1.6
			c-0.2-0.5-0.4-0.9-0.7-1.2c-0.3-0.3-0.6-0.6-1-0.8c-0.4-0.2-0.8-0.3-1.3-0.3c-0.3,0-0.6,0-0.8,0s-0.4,0-0.6,0c0,0.1,0,0.2,0,0.4
			s0,0.5,0,0.8V85v0.7v2.5C133.1,88.2,133.1,89.3,133.1,89.3z"/>
		<path class="st0" d="M141.8,84.3c0-0.6,0-1.2-0.1-1.8c0.2,0,0.3,0,0.5,0s0.4,0,0.6,0c0.3,0,0.7,0,1,0s0.9,0,1.5,0
			c0.8,0,1.5,0.1,2.2,0.2s1.2,0.4,1.7,0.7c0.5,0.3,0.9,0.8,1.1,1.4c0.3,0.6,0.4,1.3,0.4,2.2c0,0.8-0.1,1.5-0.4,2.1
			c-0.3,0.6-0.6,1.2-1.1,1.6c-0.4,0.4-1,0.8-1.6,1s-1.2,0.4-1.9,0.4s-1.3,0-1.8,0s-0.9,0-1.3,0c-0.2,0-0.4,0-0.6,0
			c-0.2,0-0.4,0-0.5,0c0-0.6,0.1-1.2,0.1-1.8c0-0.6,0-1.3,0-2.1v-1.9C141.8,85.6,141.8,84.9,141.8,84.3z M143.9,89.3v0.8
			c0,0.3,0,0.5,0,0.8s0,0.4,0,0.4c0.1,0,0.3,0,0.5,0s0.4,0,0.7,0c1.1,0,1.9-0.4,2.5-1.1s0.9-1.8,0.9-3.3c0-0.6-0.1-1.1-0.2-1.6
			c-0.2-0.5-0.4-0.9-0.7-1.2c-0.3-0.3-0.6-0.6-1-0.8c-0.4-0.2-0.8-0.3-1.3-0.3c-0.3,0-0.6,0-0.8,0s-0.4,0-0.6,0c0,0.1,0,0.2,0,0.4
			s0,0.5,0,0.8V85v0.7v2.5L143.9,89.3L143.9,89.3z"/>
		<path class="st0" d="M155.2,83.1c-0.4,0-0.8,0.1-1.1,0.4s-0.4,0.6-0.4,0.9s0.1,0.6,0.3,0.9s0.5,0.4,0.8,0.6s0.7,0.4,1,0.5
			c0.4,0.2,0.7,0.4,1,0.6s0.6,0.5,0.8,0.9c0.2,0.3,0.3,0.8,0.3,1.3s-0.1,0.9-0.3,1.3s-0.4,0.7-0.8,1s-0.7,0.5-1.2,0.6
			s-1,0.2-1.5,0.2s-1-0.1-1.4-0.2s-0.7-0.2-0.9-0.4c0.1-0.3,0.2-0.6,0.2-0.9c0.1-0.3,0.1-0.6,0.2-0.9h0.3c0,0.2,0.1,0.4,0.2,0.6
			s0.2,0.3,0.4,0.5c0.2,0.1,0.4,0.3,0.6,0.3s0.5,0.1,0.8,0.1c0.6,0,1-0.1,1.3-0.4s0.4-0.6,0.4-1s-0.1-0.7-0.3-0.9
			c-0.2-0.2-0.5-0.4-0.8-0.6s-0.7-0.3-1-0.5c-0.4-0.2-0.7-0.4-1-0.6s-0.6-0.5-0.8-0.9c-0.2-0.3-0.3-0.8-0.3-1.3s0.1-0.9,0.3-1.3
			s0.4-0.7,0.7-0.9c0.3-0.3,0.6-0.4,1-0.6c0.4-0.1,0.8-0.2,1.2-0.2c0.5,0,1,0.1,1.3,0.2c0.4,0.1,0.7,0.3,1,0.5
			c-0.1,0.2-0.2,0.4-0.2,0.6s-0.1,0.5-0.2,0.8h-0.2C156.6,83.5,156,83.1,155.2,83.1z"/>
	</g>
</g>
<path class="st0" d="M187.1,74H11.7c-0.6,0-1-0.4-1-1s0.4-1,1-1h175.4c0.6,0,1,0.4,1,1S187.7,74,187.1,74z"/>
</svg>
